<svg xmlns="http://www.w3.org/2000/svg" viewBox="0 0 1920 1080"
     font-family="ui-monospace, 'JetBrains Mono', 'Berkeley Mono', monospace"
     style="background:#0A0A0A;">
  <defs>
    <filter id="soft" x="-20%" y="-20%" width="140%" height="140%">
      <feGaussianBlur stdDeviation="1.4"/>
    </filter>
  </defs>
  <rect width="1920" height="1080" fill="#0A0A0A"/>

  <g id="solid-edges" stroke="#E8E6E3" stroke-opacity="0.32" stroke-width="1.2">
    <line x1="960.0" y1="250.0" x2="1148.1" y2="311.1"/>
    <line x1="960.0" y1="250.0" x2="1264.3" y2="471.1"/>
    <line x1="960.0" y1="250.0" x2="1264.3" y2="668.9"/>
    <line x1="960.0" y1="250.0" x2="1148.1" y2="828.9"/>
    <line x1="960.0" y1="250.0" x2="960.0" y2="890.0"/>
    <line x1="960.0" y1="250.0" x2="771.9" y2="828.9"/>
    <line x1="960.0" y1="250.0" x2="655.7" y2="668.9"/>
    <line x1="960.0" y1="250.0" x2="655.7" y2="471.1"/>
    <line x1="960.0" y1="250.0" x2="771.9" y2="311.1"/>
    <line x1="1148.1" y1="311.1" x2="1264.3" y2="471.1"/>
    <line x1="1148.1" y1="311.1" x2="1264.3" y2="668.9"/>
    <line x1="1148.1" y1="311.1" x2="1148.1" y2="828.9"/>
    <line x1="1148.1" y1="311.1" x2="960.0" y2="890.0"/>
    <line x1="1148.1" y1="311.1" x2="771.9" y2="828.9"/>
    <line x1="1148.1" y1="311.1" x2="655.7" y2="668.9"/>
    <line x1="1148.1" y1="311.1" x2="655.7" y2="471.1"/>
    <line x1="1148.1" y1="311.1" x2="771.9" y2="311.1"/>
    <line x1="1264.3" y1="471.1" x2="1264.3" y2="668.9"/>
    <line x1="1264.3" y1="471.1" x2="1148.1" y2="828.9"/>
    <line x1="1264.3" y1="471.1" x2="960.0" y2="890.0"/>
    <line x1="1264.3" y1="471.1" x2="771.9" y2="828.9"/>
    <line x1="1264.3" y1="471.1" x2="655.7" y2="668.9"/>
    <line x1="1264.3" y1="471.1" x2="655.7" y2="471.1"/>
    <line x1="1264.3" y1="471.1" x2="771.9" y2="311.1"/>
    <line x1="1264.3" y1="668.9" x2="1148.1" y2="828.9"/>
    <line x1="1264.3" y1="668.9" x2="960.0" y2="890.0"/>
    <line x1="1264.3" y1="668.9" x2="771.9" y2="828.9"/>
    <line x1="1264.3" y1="668.9" x2="655.7" y2="668.9"/>
    <line x1="1264.3" y1="668.9" x2="655.7" y2="471.1"/>
    <line x1="1264.3" y1="668.9" x2="771.9" y2="311.1"/>
    <line x1="1148.1" y1="828.9" x2="960.0" y2="890.0"/>
    <line x1="1148.1" y1="828.9" x2="771.9" y2="828.9"/>
    <line x1="1148.1" y1="828.9" x2="655.7" y2="668.9"/>
    <line x1="1148.1" y1="828.9" x2="655.7" y2="471.1"/>
    <line x1="1148.1" y1="828.9" x2="771.9" y2="311.1"/>
    <line x1="960.0" y1="890.0" x2="771.9" y2="828.9"/>
    <line x1="960.0" y1="890.0" x2="655.7" y2="668.9"/>
    <line x1="960.0" y1="890.0" x2="655.7" y2="471.1"/>
    <line x1="960.0" y1="890.0" x2="771.9" y2="311.1"/>
    <line x1="771.9" y1="828.9" x2="655.7" y2="668.9"/>
    <line x1="771.9" y1="828.9" x2="655.7" y2="471.1"/>
    <line x1="771.9" y1="828.9" x2="771.9" y2="311.1"/>
    <line x1="655.7" y1="668.9" x2="655.7" y2="471.1"/>
    <line x1="655.7" y1="668.9" x2="771.9" y2="311.1"/>
    <line x1="655.7" y1="471.1" x2="771.9" y2="311.1"/>
  </g>
  <g id="user-edges" stroke="#E8E6E3" stroke-width="2.2" stroke-opacity="0">
    <line x1="960.0" y1="570.0" x2="960.0" y2="250.0" opacity="0">
      <animate attributeName="opacity" from="0" to="0.85" begin="1.40s" dur="0.6s" fill="freeze"/>
    </line>
    <line x1="960.0" y1="570.0" x2="1148.1" y2="311.1" opacity="0">
      <animate attributeName="opacity" from="0" to="0.85" begin="1.48s" dur="0.6s" fill="freeze"/>
    </line>
    <line x1="960.0" y1="570.0" x2="1264.3" y2="471.1" opacity="0">
      <animate attributeName="opacity" from="0" to="0.85" begin="1.56s" dur="0.6s" fill="freeze"/>
    </line>
    <line x1="960.0" y1="570.0" x2="1264.3" y2="668.9" opacity="0">
      <animate attributeName="opacity" from="0" to="0.85" begin="1.64s" dur="0.6s" fill="freeze"/>
    </line>
    <line x1="960.0" y1="570.0" x2="1148.1" y2="828.9" opacity="0">
      <animate attributeName="opacity" from="0" to="0.85" begin="1.72s" dur="0.6s" fill="freeze"/>
    </line>
    <line x1="960.0" y1="570.0" x2="960.0" y2="890.0" opacity="0">
      <animate attributeName="opacity" from="0" to="0.85" begin="1.80s" dur="0.6s" fill="freeze"/>
    </line>
    <line x1="960.0" y1="570.0" x2="771.9" y2="828.9" opacity="0">
      <animate attributeName="opacity" from="0" to="0.85" begin="1.88s" dur="0.6s" fill="freeze"/>
    </line>
    <line x1="960.0" y1="570.0" x2="655.7" y2="668.9" opacity="0">
      <animate attributeName="opacity" from="0" to="0.85" begin="1.96s" dur="0.6s" fill="freeze"/>
    </line>
    <line x1="960.0" y1="570.0" x2="655.7" y2="471.1" opacity="0">
      <animate attributeName="opacity" from="0" to="0.85" begin="2.04s" dur="0.6s" fill="freeze"/>
    </line>
    <line x1="960.0" y1="570.0" x2="771.9" y2="311.1" opacity="0">
      <animate attributeName="opacity" from="0" to="0.85" begin="2.12s" dur="0.6s" fill="freeze"/>
    </line>
  </g>
  <g id="nodes">
    <g>
      <circle cx="960.0" cy="250.0" r="14" fill="#E8E6E3">
        <animate attributeName="r" values="14;15.5;14"
          dur="3.2s" repeatCount="indefinite"/>
      </circle>
      <text x="960.0" y="223.0" fill="#E8E6E3" fill-opacity="0.78" font-size="18" text-anchor="middle">spaceG.O.A.T.</text>
    </g>
    <g>
      <circle cx="1148.1" cy="311.1" r="14" fill="#E8E6E3">
        <animate attributeName="r" values="14;15.5;14"
          dur="3.2s" repeatCount="indefinite"/>
      </circle>
      <text x="1166.9" y="290.2" fill="#E8E6E3" fill-opacity="0.78" font-size="18" text-anchor="start">lUX</text>
    </g>
    <g>
      <circle cx="1264.3" cy="471.1" r="14" fill="#E8E6E3">
        <animate attributeName="r" values="14;15.5;14"
          dur="3.2s" repeatCount="indefinite"/>
      </circle>
      <text x="1294.8" y="466.2" fill="#E8E6E3" fill-opacity="0.78" font-size="18" text-anchor="start">M3RCUR14L</text>
    </g>
    <g>
      <circle cx="1264.3" cy="668.9" r="14" fill="#E8E6E3">
        <animate attributeName="r" values="14;15.5;14"
          dur="3.2s" repeatCount="indefinite"/>
      </circle>
      <text x="1294.8" y="683.8" fill="#E8E6E3" fill-opacity="0.78" font-size="18" text-anchor="start">W3BL0RD</text>
    </g>
    <g>
      <circle cx="1148.1" cy="828.9" r="14" fill="#E8E6E3">
        <animate attributeName="r" values="14;15.5;14"
          dur="3.2s" repeatCount="indefinite"/>
      </circle>
      <text x="1166.9" y="859.8" fill="#E8E6E3" fill-opacity="0.78" font-size="18" text-anchor="start">W4R3Z</text>
    </g>
    <g>
      <circle cx="960.0" cy="890.0" r="14" fill="#E8E6E3">
        <animate attributeName="r" values="14;15.5;14"
          dur="3.2s" repeatCount="indefinite"/>
      </circle>
      <text x="960.0" y="927.0" fill="#E8E6E3" fill-opacity="0.78" font-size="18" text-anchor="middle">TR1P.L3X</text>
    </g>
    <g>
      <circle cx="771.9" cy="828.9" r="14" fill="#E8E6E3">
        <animate attributeName="r" values="14;15.5;14"
          dur="3.2s" repeatCount="indefinite"/>
      </circle>
      <text x="753.1" y="859.8" fill="#E8E6E3" fill-opacity="0.78" font-size="18" text-anchor="end">LSPy</text>
    </g>
    <g>
      <circle cx="655.7" cy="668.9" r="14" fill="#E8E6E3">
        <animate attributeName="r" values="14;15.5;14"
          dur="3.2s" repeatCount="indefinite"/>
      </circle>
      <text x="625.2" y="683.8" fill="#E8E6E3" fill-opacity="0.78" font-size="18" text-anchor="end">nug3</text>
    </g>
    <g>
      <circle cx="655.7" cy="471.1" r="14" fill="#E8E6E3">
        <animate attributeName="r" values="14;15.5;14"
          dur="3.2s" repeatCount="indefinite"/>
      </circle>
      <text x="625.2" y="466.2" fill="#E8E6E3" fill-opacity="0.78" font-size="18" text-anchor="end">4RX</text>
    </g>
    <g>
      <circle cx="771.9" cy="311.1" r="14" fill="#E8E6E3">
        <animate attributeName="r" values="14;15.5;14"
          dur="3.2s" repeatCount="indefinite"/>
      </circle>
      <text x="753.1" y="290.2" fill="#E8E6E3" fill-opacity="0.78" font-size="18" text-anchor="end">m4rq</text>
    </g>
  </g>
  <g id="user-node">
    <circle cx="960.0" cy="570.0" r="18" fill="#E8E6E3" opacity="0">
      <animate attributeName="opacity" from="0" to="1.0" begin="1.0s" dur="0.8s" fill="freeze"/>
    </circle>
    <text x="960.0" y="620.0" text-anchor="middle" fill="#E8E6E3" fill-opacity="0" font-size="22">
      rob ⌨
      <animate attributeName="fill-opacity" from="0" to="0.85" begin="1.6s" dur="0.6s" fill="freeze"/>
    </text>
  </g>
  <g id="chrome">
    <text x="60" y="80" fill="#E8E6E3" fill-opacity="0.92" font-size="42">subtext</text>
    <text x="60" y="120" fill="#E8E6E3" fill-opacity="0.55" font-size="20">the user is a peer too</text>
    <g transform="translate(60, 990)">
      <text fill="#E8E6E3" fill-opacity="0.45" font-size="16">
        ─ session 2026-04-25 · 207 messages · 10 peers · 1 machine ─
      </text>
      <text y="26" fill="#E8E6E3" fill-opacity="0.30" font-size="13">
        edges pulse on real send_message timestamps · solid layer = the room · dotted layer = the subtext
      </text>
    </g>
  </g>

</svg>